<?xml version="1.0" encoding="UTF-8" standalone="no"?>
<!DOCTYPE svg PUBLIC "-//W3C//DTD SVG 1.1//EN" "http://www.w3.org/Graphics/SVG/1.1/DTD/svg11.dtd">
<svg xmlns="http://www.w3.org/2000/svg" version="1.1" viewBox="0.00 0.00 1200.00 1200.00">
<g stroke-width="2.00" fill="none" stroke-linecap="butt">
<path stroke="#808080" vector-effect="non-scaling-stroke" d="
  M 464.96 601.53
  L 266.60 865.26
  Q 266.05 866.00 266.97 866.00
  L 366.41 866.00
  Q 366.82 866.00 367.06 865.67
  L 565.55 601.79
  A 2.97 2.97 0.0 0 0 565.55 598.21
  L 367.13 334.41
  Q 366.81 334.00 366.30 334.00
  L 266.56 334.00
  A 0.26 0.26 0.0 0 0 266.35 334.41
  L 464.96 598.46
  A 2.55 2.54 45.1 0 1 464.96 601.53"
/>
<path stroke="#808080" vector-effect="non-scaling-stroke" d="
  M 934.00 800.81
  A 0.31 0.31 0.0 0 0 933.69 800.50
  L 634.31 800.50
  A 0.31 0.31 0.0 0 0 634.00 800.81
  L 634.00 865.69
  A 0.31 0.31 0.0 0 0 634.31 866.00
  L 933.69 866.00
  A 0.31 0.31 0.0 0 0 934.00 865.69
  L 934.00 800.81"
/>
</g>
<path fill="#000000" d="
  M 0.00 0.00
  L 1200.00 0.00
  L 1200.00 1200.00
  L 0.00 1200.00
  L 0.00 0.00
  Z
  M 464.96 601.53
  L 266.60 865.26
  Q 266.05 866.00 266.97 866.00
  L 366.41 866.00
  Q 366.82 866.00 367.06 865.67
  L 565.55 601.79
  A 2.97 2.97 0.0 0 0 565.55 598.21
  L 367.13 334.41
  Q 366.81 334.00 366.30 334.00
  L 266.56 334.00
  A 0.26 0.26 0.0 0 0 266.35 334.41
  L 464.96 598.46
  A 2.55 2.54 45.1 0 1 464.96 601.53
  Z
  M 934.00 800.81
  A 0.31 0.31 0.0 0 0 933.69 800.50
  L 634.31 800.50
  A 0.31 0.31 0.0 0 0 634.00 800.81
  L 634.00 865.69
  A 0.31 0.31 0.0 0 0 634.31 866.00
  L 933.69 866.00
  A 0.31 0.31 0.0 0 0 934.00 865.69
  L 934.00 800.81
  Z"
/>
<path fill="#ffffff" d="
  M 464.96 601.53
  A 2.55 2.54 45.1 0 0 464.96 598.46
  L 266.35 334.41
  A 0.26 0.26 0.0 0 1 266.56 334.00
  L 366.30 334.00
  Q 366.81 334.00 367.13 334.41
  L 565.55 598.21
  A 2.97 2.97 0.0 0 1 565.55 601.79
  L 367.06 865.67
  Q 366.82 866.00 366.41 866.00
  L 266.97 866.00
  Q 266.05 866.00 266.60 865.26
  L 464.96 601.53
  Z"
/>
<rect fill="#ffffff" x="634.00" y="800.50" width="300.00" height="65.50" rx="0.31"/>
</svg>
