<?xml version="1.0" encoding="UTF-8" standalone="no"?>
<!DOCTYPE svg PUBLIC "-//W3C//DTD SVG 1.1//EN" "http://www.w3.org/Graphics/SVG/1.1/DTD/svg11.dtd">
<svg xmlns="http://www.w3.org/2000/svg" version="1.1" viewBox="0.00 0.00 233.00 233.00">
<g stroke-width="2.00" fill="none" stroke-linecap="butt">
<path stroke="#8ab9db" vector-effect="non-scaling-stroke" d="
  M 117.04 36.99
  Q 116.96 37.00 116.88 37.01"
/>
<path stroke="#80afd1" vector-effect="non-scaling-stroke" d="
  M 116.88 37.01
  L 49.99 37.01
  A 0.45 0.44 -2.3 0 0 49.54 37.49
  L 51.75 62.99
  Q 51.80 63.49 52.30 63.49
  L 116.96 63.49"
/>
<path stroke="#8ab9db" vector-effect="non-scaling-stroke" d="
  M 116.96 63.49
  Q 117.04 63.50 117.12 63.51"
/>
<path stroke="#248ec9" vector-effect="non-scaling-stroke" d="
  M 117.12 63.51
  L 117.06 89.99"
/>
<path stroke="#8ab9db" vector-effect="non-scaling-stroke" d="
  M 117.06 89.99
  Q 116.97 90.00 116.89 90.01"
/>
<path stroke="#80afd1" vector-effect="non-scaling-stroke" d="
  M 116.89 90.01
  L 91.89 90.01
  A 0.68 0.68 0.0 0 0 91.21 90.75
  L 93.41 116.06
  Q 93.45 116.51 93.90 116.51
  L 116.48 116.51"
/>
<path stroke="#248ec9" vector-effect="non-scaling-stroke" d="
  M 116.48 116.51
  L 116.72 116.71
  Q 117.00 116.94 117.00 117.31
  L 117.07 160.44"
/>
<path stroke="#8ab9db" vector-effect="non-scaling-stroke" d="
  M 117.07 160.44
  Q 117.45 159.87 116.99 160.49"
/>
<path stroke="#80afd1" vector-effect="non-scaling-stroke" d="
  M 116.99 160.49
  L 88.16 151.89
  A 0.76 0.74 -85.0 0 1 87.63 151.24
  L 86.20 134.58
  Q 86.15 134.00 85.57 134.00
  L 58.47 134.00
  Q 57.93 134.00 57.98 134.54
  L 61.04 169.73
  A 0.66 0.65 6.2 0 0 61.50 170.29
  L 116.49 186.82"
/>
<path stroke="#8ab9db" vector-effect="non-scaling-stroke" d="
  M 116.49 186.82
  L 117.12 186.97"
/>
<path stroke="#248ec9" vector-effect="non-scaling-stroke" d="
  M 117.12 186.97
  L 117.08 212.77
  Q 117.08 213.46 117.75 213.26
  L 188.27 192.17
  A 0.61 0.61 0.0 0 0 188.70 191.63
  L 203.64 19.87
  A 0.34 0.34 0.0 0 0 203.30 19.50
  L 117.71 19.50
  Q 117.06 19.50 117.06 20.15
  L 117.04 36.99"
/>
<path stroke="#99d4ee" vector-effect="non-scaling-stroke" d="
  M 117.12 186.97
  L 172.39 170.41
  Q 172.92 170.26 172.97 169.70
  L 184.47 37.53
  A 0.49 0.49 0.0 0 0 183.98 36.99
  L 117.04 36.99"
/>
<path stroke="#f5f5f5" vector-effect="non-scaling-stroke" d="
  M 116.49 186.82
  L 116.99 160.49"
/>
<path stroke="#99d4ee" vector-effect="non-scaling-stroke" d="
  M 117.07 160.44
  L 145.85 151.85
  Q 146.31 151.72 146.35 151.25
  L 149.31 117.02
  A 0.47 0.46 -87.7 0 0 148.85 116.51
  L 116.97 116.51"
/>
<path stroke="#f5f5f5" vector-effect="non-scaling-stroke" d="
  M 116.97 116.51
  L 116.89 90.01"
/>
<path stroke="#99d4ee" vector-effect="non-scaling-stroke" d="
  M 117.06 89.99
  L 151.17 89.99
  A 0.52 0.52 0.0 0 0 151.69 89.51
  L 153.93 63.98
  A 0.43 0.43 0.0 0 0 153.50 63.51
  L 117.12 63.51"
/>
<path stroke="#f5f5f5" vector-effect="non-scaling-stroke" d="
  M 116.88 37.01
  L 116.96 63.49"
/>
<path stroke="#8fcae4" vector-effect="non-scaling-stroke" d="
  M 116.97 116.51
  L 116.48 116.51"
/>
</g>
<path fill="#1572b6" d="
  M 28.74 204.42
  L 11.18 2.27
  A 0.48 0.48 0.0 0 1 11.65 1.75
  L 222.33 1.75
  A 0.48 0.48 0.0 0 1 222.80 2.27
  L 205.24 204.43
  A 0.48 0.48 0.0 0 1 204.90 204.84
  L 117.14 231.21
  A 0.48 0.48 0.0 0 1 116.86 231.21
  L 29.08 204.83
  A 0.48 0.48 0.0 0 1 28.74 204.42
  Z
  M 117.04 36.99
  Q 116.96 37.00 116.88 37.01
  L 49.99 37.01
  A 0.45 0.44 -2.3 0 0 49.54 37.49
  L 51.75 62.99
  Q 51.80 63.49 52.30 63.49
  L 116.96 63.49
  Q 117.04 63.50 117.12 63.51
  L 117.06 89.99
  Q 116.97 90.00 116.89 90.01
  L 91.89 90.01
  A 0.68 0.68 0.0 0 0 91.21 90.75
  L 93.41 116.06
  Q 93.45 116.51 93.90 116.51
  L 116.48 116.51
  L 116.72 116.71
  Q 117.00 116.94 117.00 117.31
  L 117.07 160.44
  Q 117.45 159.87 116.99 160.49
  L 88.16 151.89
  A 0.76 0.74 -85.0 0 1 87.63 151.24
  L 86.20 134.58
  Q 86.15 134.00 85.57 134.00
  L 58.47 134.00
  Q 57.93 134.00 57.98 134.54
  L 61.04 169.73
  A 0.66 0.65 6.2 0 0 61.50 170.29
  L 116.49 186.82
  L 117.12 186.97
  L 117.08 212.77
  Q 117.08 213.46 117.75 213.26
  L 188.27 192.17
  A 0.61 0.61 0.0 0 0 188.70 191.63
  L 203.64 19.87
  A 0.34 0.34 0.0 0 0 203.30 19.50
  L 117.71 19.50
  Q 117.06 19.50 117.06 20.15
  L 117.04 36.99
  Z"
/>
<path fill="#33a9dc" d="
  M 117.12 186.97
  L 172.39 170.41
  Q 172.92 170.26 172.97 169.70
  L 184.47 37.53
  A 0.49 0.49 0.0 0 0 183.98 36.99
  L 117.04 36.99
  L 117.06 20.15
  Q 117.06 19.50 117.71 19.50
  L 203.30 19.50
  A 0.34 0.34 0.0 0 1 203.64 19.87
  L 188.70 191.63
  A 0.61 0.61 0.0 0 1 188.27 192.17
  L 117.75 213.26
  Q 117.08 213.46 117.08 212.77
  L 117.12 186.97
  Z"
/>
<path fill="#ebebeb" d="
  M 116.88 37.01
  L 116.96 63.49
  L 52.30 63.49
  Q 51.80 63.49 51.75 62.99
  L 49.54 37.49
  A 0.45 0.44 -2.3 0 1 49.99 37.01
  L 116.88 37.01
  Z"
/>
<path fill="#ffffff" d="
  M 116.88 37.01
  Q 116.96 37.00 117.04 36.99
  L 183.98 36.99
  A 0.49 0.49 0.0 0 1 184.47 37.53
  L 172.97 169.70
  Q 172.92 170.26 172.39 170.41
  L 117.12 186.97
  L 116.49 186.82
  L 116.99 160.49
  Q 117.45 159.87 117.07 160.44
  L 145.85 151.85
  Q 146.31 151.72 146.35 151.25
  L 149.31 117.02
  A 0.47 0.46 -87.7 0 0 148.85 116.51
  L 116.97 116.51
  L 116.89 90.01
  Q 116.97 90.00 117.06 89.99
  L 151.17 89.99
  A 0.52 0.52 0.0 0 0 151.69 89.51
  L 153.93 63.98
  A 0.43 0.43 0.0 0 0 153.50 63.51
  L 117.12 63.51
  Q 117.04 63.50 116.96 63.49
  L 116.88 37.01
  Z"
/>
<path fill="#33a9dc" d="
  M 117.12 63.51
  L 153.50 63.51
  A 0.43 0.43 0.0 0 1 153.93 63.98
  L 151.69 89.51
  A 0.52 0.52 0.0 0 1 151.17 89.99
  L 117.06 89.99
  L 117.12 63.51
  Z"
/>
<path fill="#ebebeb" d="
  M 116.89 90.01
  L 116.97 116.51
  L 116.48 116.51
  L 93.90 116.51
  Q 93.45 116.51 93.41 116.06
  L 91.21 90.75
  A 0.68 0.68 0.0 0 1 91.89 90.01
  L 116.89 90.01
  Z"
/>
<path fill="#33a9dc" d="
  M 116.48 116.51
  L 116.97 116.51
  L 148.85 116.51
  A 0.47 0.46 -87.7 0 1 149.31 117.02
  L 146.35 151.25
  Q 146.31 151.72 145.85 151.85
  L 117.07 160.44
  L 117.00 117.31
  Q 117.00 116.94 116.72 116.71
  L 116.48 116.51
  Z"
/>
<path fill="#ebebeb" d="
  M 116.99 160.49
  L 116.49 186.82
  L 61.50 170.29
  A 0.66 0.65 6.2 0 1 61.04 169.73
  L 57.98 134.54
  Q 57.93 134.00 58.47 134.00
  L 85.57 134.00
  Q 86.15 134.00 86.20 134.58
  L 87.63 151.24
  A 0.76 0.74 -85.0 0 0 88.16 151.89
  L 116.99 160.49
  Z"
/>
</svg>
