<?xml version="1.0" encoding="UTF-8" standalone="no"?>
<!DOCTYPE svg PUBLIC "-//W3C//DTD SVG 1.1//EN" "http://www.w3.org/Graphics/SVG/1.1/DTD/svg11.dtd">
<svg xmlns="http://www.w3.org/2000/svg" version="1.1" viewBox="0.00 0.00 233.00 233.00">
<g stroke-width="2.00" fill="none" stroke-linecap="butt">
<path stroke="#f2a693" vector-effect="non-scaling-stroke" d="
  M 119.09 38.00
  Q 118.98 38.00 118.88 38.01"
/>
<path stroke="#e89c89" vector-effect="non-scaling-stroke" d="
  M 118.88 38.01
  L 51.97 38.01
  A 0.44 0.44 0.0 0 0 51.53 38.49
  L 58.34 116.98
  Q 58.38 117.46 58.86 117.46
  L 117.99 117.47"
/>
<path stroke="#eb5928" vector-effect="non-scaling-stroke" d="
  M 117.99 117.47
  Q 118.05 117.74 118.55 117.77
  Q 119.00 117.81 119.00 118.26
  L 119.00 159.99
  Q 119.00 160.43 118.70 160.75
  Q 118.45 161.01 118.47 161.30"
/>
<path stroke="#e89c89" vector-effect="non-scaling-stroke" d="
  M 118.47 161.30
  L 90.17 152.88
  A 0.74 0.72 5.9 0 1 89.64 152.24
  L 88.18 135.45
  A 0.49 0.49 0.0 0 0 87.69 135.00
  L 60.46 135.00
  Q 59.92 135.00 59.97 135.54
  L 63.04 170.74
  A 0.77 0.75 5.9 0 0 63.58 171.39
  L 118.90 187.95"
/>
<path stroke="#f2a693" vector-effect="non-scaling-stroke" d="
  M 118.90 187.95
  Q 119.01 188.03 119.08 187.99"
/>
<path stroke="#eb5928" vector-effect="non-scaling-stroke" d="
  M 119.08 187.99
  L 119.05 213.76
  A 0.53 0.53 0.0 0 0 119.73 214.27
  L 190.16 193.18
  A 0.76 0.75 -6.3 0 0 190.70 192.52
  L 205.60 21.27
  Q 205.66 20.50 204.89 20.50
  L 119.71 20.50
  Q 119.10 20.50 119.10 21.10
  L 119.09 38.00"
/>
<path stroke="#f8b294" vector-effect="non-scaling-stroke" d="
  M 119.08 187.99
  L 174.40 171.40
  A 0.78 0.78 0.0 0 0 174.95 170.73
  L 181.88 91.48
  A 0.45 0.44 -87.6 0 0 181.44 90.99
  L 119.04 90.99"
/>
<path stroke="#eb5928" vector-effect="non-scaling-stroke" d="
  M 119.04 90.99
  L 119.11 64.50"
/>
<path stroke="#f8b294" vector-effect="non-scaling-stroke" d="
  M 119.11 64.50
  L 183.69 64.50
  Q 184.18 64.50 184.22 64.01
  L 186.45 38.51
  A 0.48 0.47 2.7 0 0 185.97 37.99
  L 119.09 38.00"
/>
<path stroke="#f5f5f5" vector-effect="non-scaling-stroke" d="
  M 118.90 187.95
  L 119.01 161.48"
/>
<path stroke="#f8b294" vector-effect="non-scaling-stroke" d="
  M 119.01 161.48
  L 147.82 152.84
  Q 148.27 152.71 148.31 152.24
  L 151.32 118.02
  A 0.47 0.46 2.2 0 0 150.85 117.52
  L 118.87 117.51"
/>
<path stroke="#f2a693" vector-effect="non-scaling-stroke" d="
  M 119.11 64.50
  Q 119.03 64.51 118.96 64.53"
/>
<path stroke="#f2a693" vector-effect="non-scaling-stroke" d="
  M 119.04 90.99
  Q 118.95 90.98 118.86 90.97"
/>
<path stroke="#eea88a" vector-effect="non-scaling-stroke" d="
  M 119.01 161.48
  L 118.47 161.30"
/>
<path stroke="#f5f5f5" vector-effect="non-scaling-stroke" d="
  M 118.88 38.01
  L 118.96 64.53"
/>
<path stroke="#e89c89" vector-effect="non-scaling-stroke" d="
  M 118.96 64.53
  L 82.54 64.54
  Q 82.05 64.54 82.09 65.02
  L 84.30 90.48
  Q 84.34 90.96 84.83 90.96
  L 118.86 90.97"
/>
<path stroke="#f5f5f5" vector-effect="non-scaling-stroke" d="
  M 118.86 90.97
  L 118.87 117.51"
/>
<path stroke="#eea88a" vector-effect="non-scaling-stroke" d="
  M 118.87 117.51
  L 117.99 117.47"
/>
</g>
<path fill="#e44d26" d="
  M 30.73 205.33
  L 13.19 3.41
  A 0.61 0.61 0.0 0 1 13.80 2.75
  L 224.20 2.75
  A 0.61 0.61 0.0 0 1 224.81 3.41
  L 207.25 205.33
  A 0.61 0.61 0.0 0 1 206.81 205.86
  L 119.19 232.19
  A 0.61 0.61 0.0 0 1 118.83 232.19
  L 31.17 205.86
  A 0.61 0.61 0.0 0 1 30.73 205.33
  Z
  M 119.09 38.00
  Q 118.98 38.00 118.88 38.01
  L 51.97 38.01
  A 0.44 0.44 0.0 0 0 51.53 38.49
  L 58.34 116.98
  Q 58.38 117.46 58.86 117.46
  L 117.99 117.47
  Q 118.05 117.74 118.55 117.77
  Q 119.00 117.81 119.00 118.26
  L 119.00 159.99
  Q 119.00 160.43 118.70 160.75
  Q 118.45 161.01 118.47 161.30
  L 90.17 152.88
  A 0.74 0.72 5.9 0 1 89.64 152.24
  L 88.18 135.45
  A 0.49 0.49 0.0 0 0 87.69 135.00
  L 60.46 135.00
  Q 59.92 135.00 59.97 135.54
  L 63.04 170.74
  A 0.77 0.75 5.9 0 0 63.58 171.39
  L 118.90 187.95
  Q 119.01 188.03 119.08 187.99
  L 119.05 213.76
  A 0.53 0.53 0.0 0 0 119.73 214.27
  L 190.16 193.18
  A 0.76 0.75 -6.3 0 0 190.70 192.52
  L 205.60 21.27
  Q 205.66 20.50 204.89 20.50
  L 119.71 20.50
  Q 119.10 20.50 119.10 21.10
  L 119.09 38.00
  Z"
/>
<path fill="#f16529" d="
  M 119.08 187.99
  L 174.40 171.40
  A 0.78 0.78 0.0 0 0 174.95 170.73
  L 181.88 91.48
  A 0.45 0.44 -87.6 0 0 181.44 90.99
  L 119.04 90.99
  L 119.11 64.50
  L 183.69 64.50
  Q 184.18 64.50 184.22 64.01
  L 186.45 38.51
  A 0.48 0.47 2.7 0 0 185.97 37.99
  L 119.09 38.00
  L 119.10 21.10
  Q 119.10 20.50 119.71 20.50
  L 204.89 20.50
  Q 205.66 20.50 205.60 21.27
  L 190.70 192.52
  A 0.76 0.75 -6.3 0 1 190.16 193.18
  L 119.73 214.27
  A 0.53 0.53 0.0 0 1 119.05 213.76
  L 119.08 187.99
  Z"
/>
<path fill="#ebebeb" d="
  M 118.88 38.01
  L 118.96 64.53
  L 82.54 64.54
  Q 82.05 64.54 82.09 65.02
  L 84.30 90.48
  Q 84.34 90.96 84.83 90.96
  L 118.86 90.97
  L 118.87 117.51
  L 117.99 117.47
  L 58.86 117.46
  Q 58.38 117.46 58.34 116.98
  L 51.53 38.49
  A 0.44 0.44 0.0 0 1 51.97 38.01
  L 118.88 38.01
  Z"
/>
<path fill="#ffffff" d="
  M 118.88 38.01
  Q 118.98 38.00 119.09 38.00
  L 185.97 37.99
  A 0.48 0.47 2.7 0 1 186.45 38.51
  L 184.22 64.01
  Q 184.18 64.50 183.69 64.50
  L 119.11 64.50
  Q 119.03 64.51 118.96 64.53
  L 118.88 38.01
  Z"
/>
<path fill="#e44d26" d="
  M 118.96 64.53
  Q 119.03 64.51 119.11 64.50
  L 119.04 90.99
  Q 118.95 90.98 118.86 90.97
  L 84.83 90.96
  Q 84.34 90.96 84.30 90.48
  L 82.09 65.02
  Q 82.05 64.54 82.54 64.54
  L 118.96 64.53
  Z"
/>
<path fill="#ffffff" d="
  M 118.86 90.97
  Q 118.95 90.98 119.04 90.99
  L 181.44 90.99
  A 0.45 0.44 -87.6 0 1 181.88 91.48
  L 174.95 170.73
  A 0.78 0.78 0.0 0 1 174.40 171.40
  L 119.08 187.99
  Q 119.01 188.03 118.90 187.95
  L 119.01 161.48
  L 147.82 152.84
  Q 148.27 152.71 148.31 152.24
  L 151.32 118.02
  A 0.47 0.46 2.2 0 0 150.85 117.52
  L 118.87 117.51
  L 118.86 90.97
  Z"
/>
<path fill="#f16529" d="
  M 117.99 117.47
  L 118.87 117.51
  L 150.85 117.52
  A 0.47 0.46 2.2 0 1 151.32 118.02
  L 148.31 152.24
  Q 148.27 152.71 147.82 152.84
  L 119.01 161.48
  L 118.47 161.30
  Q 118.45 161.01 118.70 160.75
  Q 119.00 160.43 119.00 159.99
  L 119.00 118.26
  Q 119.00 117.81 118.55 117.77
  Q 118.05 117.74 117.99 117.47
  Z"
/>
<path fill="#ebebeb" d="
  M 118.47 161.30
  L 119.01 161.48
  L 118.90 187.95
  L 63.58 171.39
  A 0.77 0.75 5.9 0 1 63.04 170.74
  L 59.97 135.54
  Q 59.92 135.00 60.46 135.00
  L 87.69 135.00
  A 0.49 0.49 0.0 0 1 88.18 135.45
  L 89.64 152.24
  A 0.74 0.72 5.9 0 0 90.17 152.88
  L 118.47 161.30
  Z"
/>
</svg>
